<?xml version="1.0" standalone="no"?><!DOCTYPE svg PUBLIC "-//W3C//DTD SVG 1.1//EN" "http://www.w3.org/Graphics/SVG/1.1/DTD/svg11.dtd"><svg t="1562397997478" class="icon" viewBox="0 0 1024 1024" version="1.1" xmlns="http://www.w3.org/2000/svg" p-id="3016" xmlns:xlink="http://www.w3.org/1999/xlink" width="200" height="200"><defs><style type="text/css"></style></defs><path d="M238.630599 272.461197a33.149446 33.149446 0 0 1-33.149446-33.149445V33.149446a33.149446 33.149446 0 0 1 66.298891 0v204.345898a33.149446 33.149446 0 0 1-33.149445 34.965853zM492.927716 272.461197a33.149446 33.149446 0 0 1-33.149445-33.149445V33.149446a33.149446 33.149446 0 0 1 66.298891 0v204.345898a33.149446 33.149446 0 0 1-33.149446 34.965853zM745.862528 272.461197a33.149446 33.149446 0 0 1-33.149446-33.149445V33.149446a33.149446 33.149446 0 0 1 66.298891 0v204.345898A33.149446 33.149446 0 0 1 745.862528 272.461197zM340.803548 422.314856h-86.279379a29.062528 29.062528 0 0 1-28.608426-29.062528 28.608426 28.608426 0 0 1 28.608426-29.970732h86.279379a28.608426 28.608426 0 0 1 28.608425 29.062528 29.062528 29.062528 0 0 1-28.608425 29.970732zM536.067406 422.314856h-86.279379a29.062528 29.062528 0 0 1-28.608426-29.062528 28.608426 28.608426 0 0 1 28.608426-29.970732h86.279379a28.608426 28.608426 0 0 1 28.608425 29.062528 29.062528 29.062528 0 0 1-28.608425 29.970732zM730.877162 422.314856h-86.279379a29.062528 29.062528 0 0 1-28.608426-29.062528 28.608426 28.608426 0 0 1 29.062528-29.970732h86.279379a29.062528 29.062528 0 0 1 29.062528 29.062528 29.062528 29.062528 0 0 1-29.51663 29.970732zM340.803548 576.255432h-86.279379a29.062528 29.062528 0 0 1-28.608426-29.062527 28.608426 28.608426 0 0 1 28.608426-29.062528h86.279379a28.608426 28.608426 0 0 1 28.608425 29.062528 29.062528 29.062528 0 0 1-28.608425 29.062527zM536.067406 576.255432h-86.279379a29.062528 29.062528 0 0 1-28.608426-29.062527 28.608426 28.608426 0 0 1 28.608426-29.062528h86.279379a28.608426 28.608426 0 0 1 28.608425 29.062528 29.062528 29.062528 0 0 1-28.608425 29.062527zM730.877162 576.255432h-86.279379a29.062528 29.062528 0 0 1-28.608426-29.062527 28.608426 28.608426 0 0 1 28.608426-29.062528h86.279379a29.062528 29.062528 0 0 1 29.062528 29.062528 29.062528 29.062528 0 0 1-29.062528 29.062527zM340.803548 730.196009h-86.279379a29.062528 29.062528 0 0 1-28.608426-29.062528 29.062528 29.062528 0 0 1 28.608426-29.062528h86.279379a29.062528 29.062528 0 0 1 28.608425 29.062528 29.062528 29.062528 0 0 1-28.608425 29.062528z" fill="#515151" p-id="3017"></path><path d="M588.289135 920.464745H205.027051a119.882927 119.882927 0 0 1-119.882927-119.882927V281.543237a119.882927 119.882927 0 0 1 119.882927-119.882927h575.347228A119.882927 119.882927 0 0 1 900.257206 281.543237v325.591131a237.495344 237.495344 0 0 1 66.298892 45.4102V281.543237a186.181818 186.181818 0 0 0-186.181819-186.181818H205.027051A186.181818 186.181818 0 0 0 19.299335 281.543237v519.038581a186.181818 186.181818 0 0 0 185.727716 185.727716h427.309978a237.949446 237.949446 0 0 1-44.047894-65.844789z" fill="#515151" p-id="3018"></path><path d="M806.258093 627.114856a198.442572 198.442572 0 1 0 198.442572 198.442572 198.442572 198.442572 0 0 0-198.442572-198.442572zM917.05898 771.973392l-108.076275 136.230599a22.7051 22.7051 0 0 1-15.439468 8.627938H791.272727a22.7051 22.7051 0 0 1-14.531264-4.995122L700.452328 848.262528a22.7051 22.7051 0 0 1 28.608426-34.965854L787.185809 862.793792 882.093126 742.456763a22.7051 22.7051 0 1 1 35.874058 28.154323z" fill="#1989fa" p-id="3019"></path></svg>
